<!-- icon666.com - MILLIONS vector ICONS FREE --><svg xmlns="http://www.w3.org/2000/svg" id="Layer_1" data-name="Layer 1" viewBox="0 0 128 128"><path d="M64,28.073A35.917,35.917,0,1,0,99.917,63.989,35.958,35.958,0,0,0,64,28.073Zm0,68.333A32.417,32.417,0,1,1,96.417,63.989,32.453,32.453,0,0,1,64,96.406Z" fill="#000000" style="fill: rgb(255, 255, 255);"></path><path d="M78.231,37.679a1.75,1.75,0,0,0-1.67,3.076A26.5,26.5,0,0,1,89.705,57.886a1.751,1.751,0,0,0,1.7,1.346,1.77,1.77,0,0,0,.406-.047,1.751,1.751,0,0,0,1.3-2.107A30,30,0,0,0,78.231,37.679Z" fill="#000000" style="fill: rgb(255, 255, 255);"></path><path d="M123.25,63.989a1.75,1.75,0,0,0-.531-1.256L111.025,51.385l4.46-15.674a1.749,1.749,0,0,0-1.257-2.176L98.417,29.572l-3.961-15.81A1.75,1.75,0,0,0,92.279,12.5L76.6,16.964,65.256,5.271a1.8,1.8,0,0,0-2.512,0L51.4,16.964,35.722,12.5a1.75,1.75,0,0,0-2.177,1.258l-3.962,15.81-15.81,3.961a1.75,1.75,0,0,0-1.258,2.177l4.46,15.675L5.281,62.733a1.751,1.751,0,0,0,0,2.512L16.975,76.594l-4.46,15.674a1.75,1.75,0,0,0,1.257,2.176l15.811,3.963,3.961,15.809a1.75,1.75,0,0,0,2.177,1.258L51.4,111.015l11.348,11.693a1.751,1.751,0,0,0,2.512,0L76.6,111.015l15.674,4.46a1.75,1.75,0,0,0,2.177-1.258l3.962-15.81,15.81-3.962a1.75,1.75,0,0,0,1.258-2.176l-4.46-15.675,11.694-11.349A1.748,1.748,0,0,0,123.25,63.989ZM107.837,74.811a1.75,1.75,0,0,0-.464,1.734l4.252,14.944L96.55,95.267a1.749,1.749,0,0,0-1.272,1.272L91.5,111.614l-14.943-4.252a1.75,1.75,0,0,0-1.735.465L64,118.977l-10.821-11.15a1.748,1.748,0,0,0-1.735-.465L36.5,111.614,32.723,96.539a1.752,1.752,0,0,0-1.273-1.272L16.375,91.488l4.252-14.943a1.75,1.75,0,0,0-.464-1.734L9.013,63.989l11.15-10.821a1.752,1.752,0,0,0,.464-1.735L16.375,36.489,31.45,32.712a1.749,1.749,0,0,0,1.272-1.273L36.5,16.365l14.943,4.251a1.752,1.752,0,0,0,1.735-.464L64,9l10.821,11.15a1.752,1.752,0,0,0,1.735.464L91.5,16.365l3.777,15.074a1.749,1.749,0,0,0,1.273,1.272l15.075,3.779-4.252,14.943a1.752,1.752,0,0,0,.464,1.735l11.15,10.821Z" fill="#000000" style="fill: rgb(255, 255, 255);"></path></svg>